<svg width="50" height="50" viewBox="0 0 50 50" fill="none" xmlns="http://www.w3.org/2000/svg">
<path d="M45.8313 16.6667C45.8315 16.2886 45.7285 15.9176 45.5334 15.5938L39.8896 6.18751C39.5178 5.57259 38.994 5.0637 38.3687 4.70978C37.7433 4.35586 37.0374 4.16883 36.3188 4.16667H13.6771C12.2229 4.16667 10.8542 4.94167 10.1063 6.18959L4.46253 15.5938C4.26742 15.9176 4.16442 16.2886 4.16461 16.6667C4.16461 18.7604 4.96878 20.6542 6.24795 22.1208V41.6667C6.24795 42.2192 6.46744 42.7491 6.85814 43.1398C7.24884 43.5305 7.77874 43.75 8.33128 43.75H24.9979C25.5505 43.75 26.0804 43.5305 26.4711 43.1398C26.8618 42.7491 27.0813 42.2192 27.0813 41.6667V31.25H35.4146V41.6667C35.4146 42.2192 35.6341 42.7491 36.0248 43.1398C36.4155 43.5305 36.9454 43.75 37.4979 43.75H41.6646C42.2171 43.75 42.7471 43.5305 43.1378 43.1398C43.5285 42.7491 43.7479 42.2192 43.7479 41.6667V22.1208C45.0271 20.6542 45.8313 18.7604 45.8313 16.6667ZM41.6313 17.1896C41.5031 18.1956 41.0128 19.1205 40.252 19.7912C39.4912 20.4619 38.5121 20.8323 37.4979 20.8333C35.2 20.8333 33.3313 18.9646 33.3313 16.6667C33.3313 16.525 33.2792 16.4 33.25 16.2667L33.2917 16.2583L31.7063 8.33334H36.3188L41.6313 17.1896ZM20.8459 16.8021L22.5375 8.33334H27.4563L29.15 16.8021C29.0771 19.0375 27.2479 20.8333 24.9979 20.8333C22.7479 20.8333 20.9188 19.0375 20.8459 16.8021ZM13.6771 8.33334H18.2896L16.7063 16.2583L16.7479 16.2667C16.7167 16.4 16.6646 16.525 16.6646 16.6667C16.6646 18.9646 14.7959 20.8333 12.4979 20.8333C11.4838 20.8323 10.5047 20.4619 9.7439 19.7912C8.98312 19.1205 8.49278 18.1956 8.36461 17.1896L13.6771 8.33334ZM20.8313 33.3333H12.4979V27.0833H20.8313V33.3333Z" fill="black"/>
</svg>
