<svg width="50" height="50" viewBox="0 0 50 50" fill="none" xmlns="http://www.w3.org/2000/svg">
<path d="M37.625 47.9167H41.0833C42.8333 47.9167 44.2708 46.5625 44.4791 44.8542L47.9166 10.5208H37.5V2.08334H33.3958V10.5208H23.0416L23.6666 15.3958C27.2291 16.375 30.5625 18.1458 32.5625 20.1042C35.5625 23.0625 37.625 26.125 37.625 31.125V47.9167ZM2.08331 45.8333V43.75H33.3958V45.8333C33.3958 46.9583 32.4583 47.9167 31.25 47.9167H4.16665C3.02081 47.9167 2.08331 46.9583 2.08331 45.8333ZM33.3958 31.25C33.3958 14.5833 2.08331 14.5833 2.08331 31.25H33.3958ZM2.08331 35.4167H33.3333V39.5833H2.08331V35.4167Z" fill="black"/>
</svg>
