<svg width="50" height="50" viewBox="0 0 50 50" fill="none" xmlns="http://www.w3.org/2000/svg">
<path d="M42.8542 30.9583L45.8334 27.9792L42.8542 25L35.4167 32.4375L17.5625 14.5833L25 7.14582L22.0209 4.16666L19.0417 7.14582L16.0625 4.16666L11.6042 8.62499L8.62502 5.64582L5.64585 8.62499L8.62502 11.6042L4.16669 16.0625L7.14585 19.0417L4.16669 22.0208L7.14585 25L14.5834 17.5625L32.4375 35.4167L25 42.8542L27.9792 45.8333L30.9584 42.8542L33.9375 45.8333L38.3959 41.375L41.375 44.3542L44.3542 41.375L41.375 38.3958L45.8334 33.9375L42.8542 30.9583Z" fill="black"/>
</svg>
