<svg width="50" height="50" viewBox="0 0 50 50" fill="none" xmlns="http://www.w3.org/2000/svg">
<path fill-rule="evenodd" clip-rule="evenodd" d="M43.2291 34.8208C43.2289 34.9208 43.2192 35.0206 43.2 35.1187C43.2439 35.3449 43.2373 35.578 43.1806 35.8013C43.1238 36.0246 43.0184 36.2326 42.8719 36.4104C42.7254 36.5882 42.5413 36.7314 42.3329 36.8297C42.1246 36.9281 41.897 36.9791 41.6666 36.9792H12.5C12.158 36.9792 11.8194 37.0465 11.5034 37.1774C11.1875 37.3083 10.9004 37.5001 10.6586 37.7419C10.4167 37.9837 10.2249 38.2708 10.094 38.5868C9.96317 38.9027 9.89581 39.2413 9.89581 39.5833C9.89581 39.9253 9.96317 40.264 10.094 40.5799C10.2249 40.8959 10.4167 41.1829 10.6586 41.4248C10.9004 41.6666 11.1875 41.8584 11.5034 41.9893C11.8194 42.1201 12.158 42.1875 12.5 42.1875H41.6666C42.081 42.1875 42.4785 42.3521 42.7715 42.6451C43.0645 42.9382 43.2291 43.3356 43.2291 43.75C43.2291 44.1644 43.0645 44.5618 42.7715 44.8549C42.4785 45.1479 42.081 45.3125 41.6666 45.3125H12.5C10.9805 45.3125 9.52327 44.7089 8.44885 43.6345C7.37442 42.56 6.77081 41.1028 6.77081 39.5833V10.4167C6.77081 8.8972 7.37442 7.43996 8.44885 6.36553C9.52327 5.29111 10.9805 4.6875 12.5 4.6875H40.4166C41.9708 4.6875 43.2291 5.94583 43.2291 7.5V34.8208ZM18.75 13.0208C18.3356 13.0208 17.9382 13.1855 17.6451 13.4785C17.3521 13.7715 17.1875 14.1689 17.1875 14.5833C17.1875 14.9977 17.3521 15.3952 17.6451 15.6882C17.9382 15.9812 18.3356 16.1458 18.75 16.1458H31.25C31.6644 16.1458 32.0618 15.9812 32.3548 15.6882C32.6479 15.3952 32.8125 14.9977 32.8125 14.5833C32.8125 14.1689 32.6479 13.7715 32.3548 13.4785C32.0618 13.1855 31.6644 13.0208 31.25 13.0208H18.75Z" fill="black"/>
</svg>
